<?xml version="1.0" encoding="utf-8"?>
<!-- Generator: Adobe Illustrator 26.3.1, SVG Export Plug-In . SVG Version: 6.00 Build 0)  -->
<svg version="1.1" id="레이어_1" xmlns="http://www.w3.org/2000/svg" xmlns:xlink="http://www.w3.org/1999/xlink" x="0px"
	 y="0px" viewBox="0 0 50 50" style="enable-background:new 0 0 50 50;" xml:space="preserve">
<style type="text/css">
	.st0{fill:none;stroke:#FF9011;stroke-width:4;stroke-linecap:round;stroke-miterlimit:10;}
	.st1{fill:#EDEDED;}
	.st2{fill:none;stroke:#EDEDED;stroke-width:3;stroke-linecap:round;stroke-linejoin:round;stroke-miterlimit:10;}
</style>
<path class="st0" d="M-276-194.5"/>
<path class="st1" d="M1,23.5v13c0,6.8,5.5,12.3,12.3,12.3h23.3c6.8,0,12.3-5.5,12.3-12.3v-13H1z M37.7,38.8C34.9,42,29.6,44,24,44
	c-4.7,0-9.1-1.3-12.1-3.7c-0.4-0.3-0.5-1-0.2-1.4s1-0.5,1.4-0.2C15.8,40.8,19.8,42,24,42c5.1,0,9.7-1.7,12.2-4.5
	c0.4-0.4,1-0.5,1.4-0.1C38.1,37.8,38.1,38.4,37.7,38.8z"/>
<path class="st2" d="M2.4,18.9V8.4c2.4-3.1,6.8-5.2,11.8-5.2c4.2,0,8,1.5,10.5,3.7c2.5-2.3,6.3-3.7,10.5-3.7c5.1,0,9.5,2.1,11.8,5.2
	v10.5"/>
</svg>
