<?xml version="1.0" encoding="utf-8"?>
<!-- Generator: Adobe Illustrator 26.0.3, SVG Export Plug-In . SVG Version: 6.00 Build 0)  -->
<svg version="1.1" id="레이어_1" xmlns="http://www.w3.org/2000/svg" xmlns:xlink="http://www.w3.org/1999/xlink" x="0px"
	 y="0px" viewBox="0 0 50 50" style="enable-background:new 0 0 50 50;" xml:space="preserve">
<style type="text/css">
	.st0{fill:#FF9011;}
	.st1{fill:none;stroke:#FF9011;stroke-width:4;stroke-linecap:round;stroke-miterlimit:10;}
	.st2{fill:none;stroke:#FFFFFF;stroke-width:2;stroke-linecap:round;stroke-linejoin:round;stroke-miterlimit:10;}
	.st3{fill:url(#SVGID_1_);}
	.st4{fill:none;stroke:#FF9011;stroke-width:3;stroke-linecap:round;stroke-linejoin:round;stroke-miterlimit:10;}
</style>
<g>
	<path class="st0" d="M36.7,48.9H13.3C6.5,48.9,1,43.4,1,36.5v-13h48v13C49,43.4,43.5,48.9,36.7,48.9z"/>
</g>
<path class="st1" d="M-276-194.5"/>
<path class="st2" d="M12.5,39.5C15.3,41.6,19.4,43,24,43c5.5,0,10.4-2,13-4.9"/>
<linearGradient id="SVGID_1_" gradientUnits="userSpaceOnUse" x1="24.6571" y1="11.3504" x2="44" y2="11.3504">
	<stop  offset="0" style="stop-color:#C9C9C9"/>
	<stop  offset="1" style="stop-color:#FFFFFF"/>
</linearGradient>
<path class="st3" d="M24.7,6.9v12.8H44v-13C44,6.7,37-1.8,24.7,6.9z"/>
<path class="st4" d="M2.4,18.9V8.4c2.4-3.1,6.8-5.2,11.8-5.2c4.2,0,8,1.5,10.5,3.7c2.5-2.3,6.3-3.7,10.5-3.7c5.1,0,9.5,2.1,11.8,5.2
	v10.5"/>
</svg>
